<svg width="432" height="99" viewBox="0 0 432 99" fill="none" xmlns="http://www.w3.org/2000/svg">
<mask id="mask0_120_38" style="mask-type:luminance" maskUnits="userSpaceOnUse" x="0" y="0" width="98" height="56">
<path d="M0.630249 0.104248H97.3334V55.3334H0.630249V0.104248Z" fill="white"/>
</mask>
<g mask="url(#mask0_120_38)">
<path d="M90.1615 20.7189C89.5261 21.797 88.7605 22.7814 87.8646 23.6616C86.974 24.5418 85.9844 25.2918 84.8959 25.9168C83.8074 26.5366 82.6563 27.0106 81.4428 27.3335C80.2344 27.6512 79.0001 27.8127 77.7448 27.8127C69.7865 27.8127 63.3386 21.3647 63.3386 13.4064C63.3334 11.521 63.6928 9.70328 64.4063 7.95849C65.1198 6.20849 66.1355 4.66162 67.4584 3.31787C61.8438 1.20849 56.0417 0.156409 50.0469 0.166825C22.7553 0.166825 0.635471 22.2866 0.635471 49.5783C0.630263 51.2918 0.718804 52.995 0.895888 54.6981C3.10422 52.7658 5.42714 50.9897 7.86985 49.3647C14.3594 45.0783 21.1511 42.3804 28.0626 41.3439C36.4844 40.0835 45.1303 41.2918 53.7657 44.9325C68.8751 51.3075 83.2501 48.0054 96.4688 35.1252C96.6876 34.9168 96.9011 34.7033 97.1146 34.4897C95.5209 29.5314 93.2032 24.9429 90.1615 20.7189Z" fill="#19FF82"/>
</g>
<mask id="mask1_120_38" style="mask-type:luminance" maskUnits="userSpaceOnUse" x="1" y="39" width="99" height="60">
<path d="M1.33337 39.3333H99.4323V98.901H1.33337V39.3333Z" fill="white"/>
</mask>
<g mask="url(#mask1_120_38)">
<path d="M98.5886 40.2864C92.599 45.7708 86.2553 49.5676 79.6876 51.5833C70.6407 54.3593 61.2345 53.7343 51.7449 49.7291C45.7084 47.1874 40.0157 46.0989 34.6876 46.0989C21.297 46.0989 10.2292 52.9791 1.93237 60.8853C3.28654 66.6614 5.60946 72.0155 8.90112 76.9478C9.53133 75.8385 10.2917 74.8333 11.1876 73.9218C12.0834 73.0155 13.0834 72.2395 14.1824 71.5989C15.2865 70.9583 16.4532 70.4687 17.6824 70.1405C18.9115 69.8072 20.1667 69.6405 21.4428 69.6405C29.3959 69.6405 35.849 76.0937 35.849 84.0468C35.849 86.1718 35.4011 88.1978 34.5053 90.1249C33.6095 92.052 32.349 93.703 30.7188 95.0676C36.8959 97.6926 43.3386 98.9999 50.0522 98.9947C77.3386 98.9947 99.4636 76.8697 99.4636 49.578C99.4636 46.453 99.172 43.3593 98.5886 40.2864Z" fill="#00BFBF"/>
</g>
<path d="M152.506 19.312V54.7287C152.506 58.2703 153.37 60.9995 155.11 62.9162C156.86 64.8328 159.422 65.7912 162.797 65.7912C166.172 65.7912 168.756 64.8328 170.547 62.9162C172.349 60.9995 173.256 58.2703 173.256 54.7287V19.312H187.693V54.6453C187.693 59.937 186.568 64.411 184.318 68.062C182.068 71.7183 179.037 74.4735 175.235 76.3328C171.443 78.1818 167.214 79.1037 162.547 79.1037C157.881 79.1037 153.704 78.1974 150.026 76.3745C146.344 74.5412 143.433 71.786 141.297 68.1037C139.157 64.4266 138.089 59.937 138.089 54.6453V19.312H152.506Z" fill="#00BFBF"/>
<path d="M240.406 19.312V30.8537H224.718V78.5203H210.281V30.8537H194.593V19.312H240.406Z" fill="#00BFBF"/>
<path d="M284.503 68.062H262.419L258.878 78.5203H243.774L265.19 19.312H281.899L303.315 78.5203H288.065L284.503 68.062ZM280.794 56.9162L273.461 35.2495L266.211 56.9162H280.794Z" fill="#00BFBF"/>
<path d="M362.789 78.5203H348.352L324.227 41.9995V78.5203H309.81V19.312H324.227L348.352 55.9995V19.312H362.789V78.5203Z" fill="#00BFBF"/>
<path d="M401.236 79.1036C395.664 79.1036 390.559 77.8119 385.924 75.2286C381.283 72.6453 377.601 69.0359 374.882 64.3953C372.158 59.7598 370.799 54.5411 370.799 48.7494C370.799 42.9578 372.158 37.7598 374.882 33.1453C377.601 28.5359 381.283 24.9369 385.924 22.3536C390.559 19.7598 395.664 18.4578 401.236 18.4578C406.804 18.4578 411.908 19.7598 416.549 22.3536C421.184 24.9369 424.841 28.5359 427.507 33.1453C430.184 37.7598 431.528 42.9578 431.528 48.7494C431.528 54.5411 430.174 59.7598 427.466 64.3953C424.768 69.0359 421.117 72.6453 416.507 75.2286C411.893 77.8119 406.804 79.1036 401.236 79.1036ZM401.236 65.9578C405.955 65.9578 409.736 64.3848 412.57 61.2286C415.414 58.0776 416.841 53.9161 416.841 48.7494C416.841 43.5151 415.414 39.3432 412.57 36.2286C409.736 33.1036 405.955 31.5411 401.236 31.5411C396.455 31.5411 392.643 33.0932 389.799 36.1869C386.966 39.2703 385.549 43.4578 385.549 48.7494C385.549 53.9734 386.966 58.1453 389.799 61.2703C392.643 64.3953 396.455 65.9578 401.236 65.9578Z" fill="#00BFBF"/>
</svg>
