<svg width="100" height="99" viewBox="0 0 100 99" fill="none" xmlns="http://www.w3.org/2000/svg">
<mask id="mask0_120_40" style="mask-type:luminance" maskUnits="userSpaceOnUse" x="0" y="0" width="98" height="56">
<path d="M0.630249 0.104248H97.3334V55.3334H0.630249V0.104248Z" fill="white"/>
</mask>
<g mask="url(#mask0_120_40)">
<path d="M90.1615 20.7189C89.5261 21.797 88.7605 22.7814 87.8646 23.6616C86.974 24.5418 85.9844 25.2918 84.8959 25.9168C83.8074 26.5366 82.6563 27.0106 81.4428 27.3335C80.2344 27.6512 79.0001 27.8127 77.7448 27.8127C69.7865 27.8127 63.3386 21.3647 63.3386 13.4064C63.3334 11.521 63.6928 9.70328 64.4063 7.95849C65.1198 6.20849 66.1355 4.66162 67.4584 3.31787C61.8438 1.20849 56.0417 0.156409 50.0469 0.166825C22.7553 0.166825 0.635471 22.2866 0.635471 49.5783C0.630263 51.2918 0.718804 52.995 0.895888 54.6981C3.10422 52.7658 5.42714 50.9897 7.86985 49.3647C14.3594 45.0783 21.1511 42.3804 28.0626 41.3439C36.4844 40.0835 45.1303 41.2918 53.7657 44.9325C68.8751 51.3075 83.2501 48.0054 96.4688 35.1252C96.6876 34.9168 96.9011 34.7033 97.1146 34.4897C95.5209 29.5314 93.2032 24.9429 90.1615 20.7189Z" fill="#19FF82"/>
</g>
<mask id="mask1_120_40" style="mask-type:luminance" maskUnits="userSpaceOnUse" x="1" y="39" width="99" height="60">
<path d="M1.33337 39.3333H99.4323V98.901H1.33337V39.3333Z" fill="white"/>
</mask>
<g mask="url(#mask1_120_40)">
<path d="M98.5886 40.2864C92.599 45.7708 86.2553 49.5676 79.6876 51.5833C70.6407 54.3593 61.2345 53.7343 51.7449 49.7291C45.7084 47.1874 40.0157 46.0989 34.6876 46.0989C21.297 46.0989 10.2292 52.9791 1.93237 60.8853C3.28654 66.6614 5.60946 72.0155 8.90112 76.9478C9.53133 75.8385 10.2917 74.8333 11.1876 73.9218C12.0834 73.0155 13.0834 72.2395 14.1824 71.5989C15.2865 70.9583 16.4532 70.4687 17.6824 70.1405C18.9115 69.8072 20.1667 69.6405 21.4428 69.6405C29.3959 69.6405 35.849 76.0937 35.849 84.0468C35.849 86.1718 35.4011 88.1978 34.5053 90.1249C33.6095 92.052 32.349 93.703 30.7188 95.0676C36.8959 97.6926 43.3386 98.9999 50.0522 98.9947C77.3386 98.9947 99.4636 76.8697 99.4636 49.578C99.4636 46.453 99.172 43.3593 98.5886 40.2864Z" fill="#00BFBF"/>
</g>
</svg>
